<?xml version="1.0" standalone="no"?>
<!DOCTYPE svg PUBLIC "-//W3C//DTD SVG 20010904//EN"
 "http://www.w3.org/TR/2001/REC-SVG-20010904/DTD/svg10.dtd">
<svg version="1.0" xmlns="http://www.w3.org/2000/svg"
 width="3093.000000pt" height="1001.000000pt" viewBox="0 0 3093.000000 1001.000000"
 preserveAspectRatio="xMidYMid meet">

<g transform="translate(0.000000,1001.000000) scale(0.100000,-0.100000)"
fill="#6c63ff" stroke="none">
<path d="M3840 7494 c-520 -66 -952 -367 -1174 -819 -101 -205 -144 -374 -153
-605 -13 -358 83 -672 295 -957 43 -58 257 -280 621 -645 305 -307 560 -558
566 -558 5 0 786 776 1734 1724 l1723 1723 -92 37 c-442 177 -963 127 -1357
-130 -49 -31 -110 -75 -138 -97 -27 -22 -460 -449 -960 -949 l-911 -909 -200
203 c-177 179 -205 212 -237 278 -72 148 -73 288 -2 439 67 141 214 248 375
272 128 20 280 -23 376 -105 l41 -35 352 353 353 353 -64 57 c-185 167 -435
292 -693 346 -98 20 -369 35 -455 24z M9790 5285 l0 -1545 410 0 410 0 2 603 3 602 568 3 567 2 0 -605 0
-605 410 0 410 0 0 1545 0 1545 -410 0 -410 0 0 -565 0 -565 -570 0 -570 0 0
565 0 565 -410 0 -410 0 0 -1545z M16056 5733 l-626 -926 0 -278 0 -279 653 -2 652 -3 3 -252 2 -253
355 0 355 0 2 253 3 252 148 3 147 3 0 309 0 309 -147 3 -148 3 -3 893 -2 892
-384 0 -384 0 -626 -927z m682 -430 l-3 -428 -293 -3 c-183 -1 -292 1 -290 7
7 21 574 850 581 851 4 0 6 -192 5 -427z M7475 5980 l-670 -670 -175 175 -175 175 -348 -348 c-191 -191 -347
-352 -347 -357 0 -6 77 -87 170 -180 l170 -170 -702 -702 -703 -703 353 -352
352 -353 1241 1240 c682 682 1269 1274 1303 1315 323 387 431 898 291 1385
-19 64 -78 215 -85 215 -3 0 -307 -301 -675 -670z M20240 6220 l0 -300 -160 0 -160 0 0 -305 0 -305 160 0 160 0 0 -392
c0 -483 17 -633 87 -802 88 -211 275 -368 506 -426 190 -47 448 -45 623 6 142
41 301 118 383 185 l23 19 -147 232 c-81 128 -151 237 -155 241 -4 5 -29 -6
-56 -22 -79 -51 -146 -71 -232 -71 -118 1 -187 41 -229 135 -16 36 -18 81 -21
468 l-3 427 270 0 271 0 0 305 0 305 -270 0 -270 0 0 300 0 300 -390 0 -390 0
0 -300z M13942 5979 c-313 -40 -593 -212 -760 -467 -173 -263 -236 -608 -176
-966 82 -487 415 -790 954 -867 127 -18 425 -15 545 5 205 35 405 96 548 168
66 33 77 42 72 58 -4 11 -58 126 -121 256 -75 156 -118 234 -127 231 -6 -3
-48 -22 -92 -41 -183 -80 -352 -111 -565 -104 -109 4 -150 10 -216 32 -91 29
-177 86 -217 143 -28 41 -57 114 -57 144 0 18 23 19 735 19 l735 0 0 113 c0
462 -114 787 -358 1018 -146 139 -321 221 -541 254 -103 16 -257 18 -359 4z
m313 -596 c122 -42 226 -161 242 -278 l6 -45 -388 0 -388 0 7 43 c23 146 151
270 306 296 65 10 159 4 215 -16z M19336 5934 c-105 -25 -192 -79 -298 -185 -61 -61 -98 -91 -99 -81 0
10 -6 69 -12 132 l-12 115 -377 3 -378 2 0 -1090 0 -1090 389 0 390 0 3 563
c4 494 6 569 21 622 54 186 161 294 337 336 66 15 233 16 314 0 33 -6 61 -9
63 -8 6 6 104 659 100 663 -2 3 -35 11 -73 19 -87 19 -289 18 -368 -1z M23530 5460 c0 -187 -2 -340 -5 -340 -3 0 -43 16 -89 35 -277 114
-620 37 -820 -186 -146 -162 -211 -386 -186 -636 37 -358 245 -594 559 -633
181 -23 351 32 482 157 l57 54 7 -86 7 -85 134 0 134 0 0 1030 0 1030 -140 0
-140 0 0 -340z m-185 -516 c33 -8 88 -31 122 -50 l63 -35 0 -277 c0 -299 -6
-345 -54 -441 -34 -65 -104 -134 -174 -168 -53 -26 -66 -28 -177 -28 -116 0
-123 1 -187 33 -36 18 -82 50 -102 72 -137 152 -168 459 -66 660 56 111 148
192 265 232 65 23 228 24 310 2z M24722 5209 c-147 -23 -270 -87 -388 -205 -93 -92 -149 -192 -185
-329 -31 -114 -31 -306 -1 -428 67 -272 249 -458 517 -528 122 -32 316 -30
449 5 132 34 250 93 328 165 l62 58 -74 81 c-41 45 -78 82 -81 82 -4 0 -28
-17 -53 -38 -172 -142 -435 -180 -623 -91 -133 63 -245 208 -260 337 l-6 52
568 0 568 0 -6 93 c-25 380 -216 657 -504 731 -79 21 -229 28 -311 15z m262
-249 c114 -36 217 -151 252 -284 8 -28 14 -61 14 -73 l0 -23 -421 0 -422 0 6
44 c22 157 139 290 302 342 64 20 193 17 269 -6z M27708 5210 c-182 -33 -324 -124 -393 -250 -28 -52 -30 -62 -30 -165
0 -100 2 -115 28 -167 36 -73 121 -151 212 -194 39 -19 149 -54 245 -79 207
-53 285 -84 330 -130 50 -52 57 -137 15 -201 -34 -53 -166 -94 -299 -94 -142
1 -267 41 -373 121 l-61 47 -82 -89 c-51 -55 -80 -95 -76 -104 8 -21 118 -100
180 -129 175 -83 454 -105 660 -51 85 22 193 82 249 137 28 28 61 76 79 115
28 60 32 76 31 157 0 70 -6 105 -23 151 -47 121 -178 215 -375 269 -49 14
-137 37 -194 53 -147 39 -240 87 -264 136 -29 56 -16 120 32 168 51 51 126 72
256 71 121 0 226 -31 318 -93 33 -21 61 -39 62 -39 8 0 145 179 145 188 0 28
-172 121 -282 152 -82 24 -308 35 -390 20z M25620 5165 c0 -2 137 -323 304 -712 l305 -708 143 -3 143 -2 297
697 c163 384 300 706 304 716 6 16 -5 17 -143 17 l-150 0 -219 -554 c-120
-305 -222 -551 -225 -548 -3 4 -104 253 -225 555 l-218 547 -158 0 c-87 0
-158 -2 -158 -5z"/>
</g>
</svg>
